<svg height="512pt" viewBox="0 -16 512 512" width="512pt" xmlns="http://www.w3.org/2000/svg"><path d="m362.199219 450-15 15h-182.398438l-15-15c17.101563 0 31.199219-14.101562 31.199219-31.199219v-58.800781h150v58.800781c0 17.097657 14.097656 31.199219 31.199219 31.199219zm0 0" fill="#bbdcff"/><path d="m362.199219 450-15 15h-91.199219v-105h75v58.800781c0 17.097657 14.097656 31.199219 31.199219 31.199219zm0 0" fill="#9abadb"/><path d="m512 0v330l-30 30h-452l-30-30v-330zm0 0" fill="#575f64"/><path d="m512 0v330l-30 30h-226v-360zm0 0" fill="#32393f"/><path d="m0 330h512v60h-512zm0 0" fill="#e0f4ff"/><path d="m256 330h256v60h-256zm0 0" fill="#bbdcff"/><path d="m121 450h270v30h-270zm0 0" fill="#e0f4ff"/><path d="m256 450h135v30h-135zm0 0" fill="#bbdcff"/><path d="m30 30h452v270h-452zm0 0" fill="#64e1dc"/><path d="m256 30h226v270h-226zm0 0" fill="#00c8c8"/><path d="m171.390625 251.527344-103.828125-86.527344 103.828125-86.527344 19.21875 23.054688-76.171875 63.472656 76.171875 63.472656zm0 0" fill="#e0f4ff"/><path d="m340.609375 251.527344-19.21875-23.054688 76.171875-63.472656-76.171875-63.472656 19.21875-23.054688 103.828125 86.527344zm0 0" fill="#bbdcff"/><path d="m300.398438 64.199219-44.398438 155.402343-15.601562 54.597657-28.796876-8.398438 44.398438-155.402343 15.601562-54.597657zm0 0" fill="#e0f4ff"/><path d="m300.398438 64.199219-44.398438 155.402343v-109.203124l15.601562-54.597657zm0 0" fill="#bbdcff"/></svg>