<?xml version="1.0" encoding="UTF-8" standalone="no"?>
<!-- Created with Inkscape (http://www.inkscape.org/) -->

<svg
   xmlns:dc="http://purl.org/dc/elements/1.1/"
   xmlns:cc="http://creativecommons.org/ns#"
   xmlns:rdf="http://www.w3.org/1999/02/22-rdf-syntax-ns#"
   xmlns:svg="http://www.w3.org/2000/svg"
   xmlns="http://www.w3.org/2000/svg"
   xmlns:sodipodi="http://sodipodi.sourceforge.net/DTD/sodipodi-0.dtd"
   xmlns:inkscape="http://www.inkscape.org/namespaces/inkscape"
   width="450"
   height="450"
   id="svg2"
   version="1.1"
   inkscape:version="0.48.4 r9939"
   sodipodi:docname="instagram_profile pic.svg"
   inkscape:export-filename="C:\Users\EAPhilippines\Dropbox\txt\instagram_profile pic.png"
   inkscape:export-xdpi="120.01064"
   inkscape:export-ydpi="120.01064">
  <defs
     id="defs4" />
  <sodipodi:namedview
     id="base"
     pagecolor="#ffffff"
     bordercolor="#666666"
     borderopacity="1.0"
     inkscape:pageopacity="0.0"
     inkscape:pageshadow="2"
     inkscape:zoom="0.38997909"
     inkscape:cx="76.12586"
     inkscape:cy="76.125887"
     inkscape:document-units="px"
     inkscape:current-layer="layer1"
     showgrid="false"
     inkscape:window-width="1360"
     inkscape:window-height="693"
     inkscape:window-x="-9"
     inkscape:window-y="-9"
     inkscape:window-maximized="1"
     fit-margin-top="0"
     fit-margin-left="0"
     fit-margin-right="0"
     fit-margin-bottom="0" />
  <metadata
     id="metadata7">
    <rdf:RDF>
      <cc:Work
         rdf:about="">
        <dc:format>image/svg+xml</dc:format>
        <dc:type
           rdf:resource="http://purl.org/dc/dcmitype/StillImage" />
        <dc:title></dc:title>
      </cc:Work>
    </rdf:RDF>
  </metadata>
  <g
     inkscape:label="Layer 1"
     inkscape:groupmode="layer"
     id="layer1"
     transform="translate(-230.91245,207.07213)">
    <g
       id="g5144"
       transform="matrix(2.955631,0,0,2.955631,-451.57949,-475.07726)">
      <path
         sodipodi:type="arc"
         style="color:#000000;fill:#c3cadd;fill-opacity:1;fill-rule:nonzero;stroke:none;stroke-width:1.25;marker:none;visibility:visible;display:inline;overflow:visible;enable-background:accumulate"
         id="path5134"
         sodipodi:cx="6.034368"
         sodipodi:cy="7.2381005"
         sodipodi:rx="76.125877"
         sodipodi:ry="76.125877"
         d="m 82.160245,7.2381005 c 0,42.0431615 -34.082716,76.1258775 -76.125877,76.1258775 -42.043161,0 -76.125877,-34.082716 -76.125877,-76.1258775 0,-42.0431615 34.082716,-76.1258775 76.125877,-76.1258775 42.043161,0 76.125877,34.082716 76.125877,76.1258775 z"
         transform="translate(301.00394,159.56389)" />
      <path
         inkscape:connector-curvature="0"
         transform="translate(249.53831,126.14277)"
         id="path5102"
         d="M 57.15625,2.25 C 49.009811,2.3082413 40.89185,6.460695 37.75,14.6875 c -1.2328,3.22816 -1.57327,6.66444 -1.3125,13.21875 0.33337,8.379 0.57714,9.26141 4.59375,15.90625 3.32924,5.5077 4.25,8.00514 4.25,11.53125 0,6.27902 -2.15753,8.14243 -13.71875,11.875 -5.38296,1.7379 -11.64617,4.26557 -13.9375,5.59375 -5.89621,3.41778 -11.13945,9.93993 -12.9375,16.125 l 0.21875,6.71875 c 13.669167,13.07377 32.18546,21.125 52.59375,21.125 20.496041,0 39.095367,-8.10777 52.78125,-21.28125 -0.034,-3.418683 -0.12942,-5.838569 -0.34375,-6.5625 C 106.80529,78.35818 99.71328,72.60573 83.21875,67.28125 71.35976,63.45313 69.28125,61.71856 69.28125,55.5625 c 0,-3.45652 0.83767,-5.97023 3.4375,-10.25 1.89477,-3.11912 3.9652,-6.99718 4.59375,-8.625 C 79.01712,32.2729 78.69734,19.27313 76.75,14.40625 73.477605,6.22773 65.302689,2.1917587 57.15625,2.25 z"
         style="color:#000000;fill:#ffffff;fill-opacity:1;fill-rule:nonzero;stroke:none;stroke-width:1.25;marker:none;visibility:visible;display:inline;overflow:visible;enable-background:accumulate" />
      <path
         sodipodi:nodetypes="cccczccc"
         inkscape:connector-curvature="0"
         id="path3032"
         d="m 328.59667,151.68427 -43.18318,-2.78003 -0.29455,1.21295 c 0,0 13.77479,1.58368 24.22007,2.2452 1.36927,7.50025 7.62885,8.02929 12.01674,7.68039 4.3879,-0.34888 5.1284,-6.42772 5.1284,-6.42772 l 2.27057,0.35923 z"
         style="fill:#c3cadd;fill-opacity:1;stroke:none" />
      <g
         transform="translate(1.37401,-0.21722221)"
         id="g3047">
        <path
           style="fill:#c3cadd;fill-opacity:1;stroke:none"
           d="m 305.68936,166.76729 c 0.0693,-1.89032 -2.83243,-2.59288 -3.98132,-1.49497 -1.1444,1.09362 -2.43755,2.35951 -4.69587,1.90011 -1.26125,-0.25658 -3.93652,-2.59974 -3.93652,-2.59974 0,0 1.44465,3.26515 2.68029,4.25689 1.23564,0.99173 2.41745,1.51756 5.30463,1.17333 2.88719,-0.34423 4.55949,-1.34529 4.62879,-3.23562 z"
           id="path3041"
           inkscape:connector-curvature="0"
           sodipodi:nodetypes="zssczzz" />
        <path
           sodipodi:nodetypes="zssczzz"
           inkscape:connector-curvature="0"
           id="path3043"
           d="m 306.28499,166.76729 c -0.0693,-1.89032 2.83243,-2.59288 3.98132,-1.49497 1.1444,1.09362 2.43755,2.35951 4.69587,1.90011 1.26125,-0.25658 3.93652,-2.59974 3.93652,-2.59974 0,0 -1.44465,3.26515 -2.68029,4.25689 -1.23564,0.99173 -2.41745,1.51756 -5.30463,1.17333 -2.88719,-0.34423 -4.55949,-1.34529 -4.62879,-3.23562 z"
           style="fill:#c3cadd;fill-opacity:1;stroke:none" />
      </g>
      <path
         sodipodi:nodetypes="scsss"
         inkscape:connector-curvature="0"
         id="path3055"
         d="m 311.16019,177.01311 c 0,3.03795 -3.3025,5.50072 -3.3025,5.50072 0,0 -3.3025,-2.46277 -3.3025,-5.50072 0,-3.03797 1.47858,0.39423 3.3025,0.39423 1.82392,0 3.3025,-3.4322 3.3025,-0.39423 z"
         style="fill:#c3cadd;fill-opacity:1;stroke:none" />
    </g>
  </g>
</svg>
